<svg xmlns="http://www.w3.org/2000/svg" viewBox="0 0 200 200" width="200" height="200">
  <!-- Background circle -->
  <circle cx="100" cy="100" r="90" fill="#3b82f6" opacity="0.1"/>

  <!-- Main icon - representing flow/scheduling -->
  <g transform="translate(100, 100)">
    <!-- GPU/Processor representation -->
    <rect x="-50" y="-50" width="100" height="100" rx="10" fill="none" stroke="#3b82f6" stroke-width="4"/>

    <!-- Grid pattern inside (representing parallel processing) -->
    <line x1="-50" y1="-15" x2="50" y2="-15" stroke="#3b82f6" stroke-width="2" opacity="0.6"/>
    <line x1="-50" y1="15" x2="50" y2="15" stroke="#3b82f6" stroke-width="2" opacity="0.6"/>
    <line x1="-15" y1="-50" x2="-15" y2="50" stroke="#3b82f6" stroke-width="2" opacity="0.6"/>
    <line x1="15" y1="-50" x2="15" y2="50" stroke="#3b82f6" stroke-width="2" opacity="0.6"/>

    <!-- Flow arrows (representing job scheduling) -->
    <g transform="translate(-30, -30)">
      <path d="M 0 0 L 15 0 L 10 -5 M 15 0 L 10 5" fill="none" stroke="#2563eb" stroke-width="3" stroke-linecap="round" stroke-linejoin="round"/>
    </g>
    <g transform="translate(15, -30)">
      <path d="M 0 0 L 15 0 L 10 -5 M 15 0 L 10 5" fill="none" stroke="#2563eb" stroke-width="3" stroke-linecap="round" stroke-linejoin="round"/>
    </g>
    <g transform="translate(-30, 15)">
      <path d="M 0 0 L 15 0 L 10 -5 M 15 0 L 10 5" fill="none" stroke="#2563eb" stroke-width="3" stroke-linecap="round" stroke-linejoin="round"/>
    </g>
    <g transform="translate(15, 15)">
      <path d="M 0 0 L 15 0 L 10 -5 M 15 0 L 10 5" fill="none" stroke="#2563eb" stroke-width="3" stroke-linecap="round" stroke-linejoin="round"/>
    </g>

    <!-- Center dot (representing scheduler) -->
    <circle cx="0" cy="0" r="8" fill="#1d4ed8"/>
  </g>

  <!-- Text -->
  <text x="100" y="185" font-family="Arial, sans-serif" font-size="24" font-weight="bold" fill="#1e293b" text-anchor="middle">gflow</text>
</svg>
